<?xml version="1.0" encoding="UTF-8"?>
<svg id="Layer_1" data-name="Layer 1" xmlns="http://www.w3.org/2000/svg" xmlns:xlink="http://www.w3.org/1999/xlink" viewBox="0 0 649.78 750.3">
  <defs>
    <style>
      .cls-1 {
        fill: url(#linear-gradient);
      }

      .cls-1, .cls-2, .cls-3, .cls-4, .cls-5 {
        stroke-width: 0px;
      }

      .cls-2 {
        fill: none;
      }

      .cls-3 {
        fill: url(#linear-gradient-2);
      }

      .cls-4 {
        fill: url(#linear-gradient-3);
      }

      .cls-5 {
        fill: #34495e;
      }
    </style>
    <linearGradient id="linear-gradient" x1="202.27" y1="328.43" x2="432.18" y2="106.14" gradientUnits="userSpaceOnUse">
      <stop offset="0" stop-color="#ec298e"/>
      <stop offset=".27" stop-color="#e9298d"/>
      <stop offset=".42" stop-color="#e12a8b"/>
      <stop offset=".54" stop-color="#d32d87"/>
      <stop offset=".65" stop-color="#bf3082"/>
      <stop offset=".74" stop-color="#a6357b"/>
      <stop offset=".83" stop-color="#863a73"/>
      <stop offset=".92" stop-color="#614169"/>
      <stop offset=".99" stop-color="#37485e"/>
      <stop offset="1" stop-color="#34495e"/>
    </linearGradient>
    <linearGradient id="linear-gradient-2" x1="477.42" y1="290.36" x2="504.32" y2="174.46" gradientUnits="userSpaceOnUse">
      <stop offset="0" stop-color="#ec298e"/>
      <stop offset=".11" stop-color="#e02b8a"/>
      <stop offset=".32" stop-color="#c13082"/>
      <stop offset=".59" stop-color="#8e3975"/>
      <stop offset=".91" stop-color="#494563"/>
      <stop offset="1" stop-color="#34495e"/>
    </linearGradient>
    <linearGradient id="linear-gradient-3" x1="396.9" y1="612.71" x2="308.25" y2="474.74" gradientUnits="userSpaceOnUse">
      <stop offset="0" stop-color="#ec298e"/>
      <stop offset=".14" stop-color="#e7298c"/>
      <stop offset=".29" stop-color="#da2b89"/>
      <stop offset=".44" stop-color="#c52f84"/>
      <stop offset=".59" stop-color="#a8347c"/>
      <stop offset=".75" stop-color="#813b72"/>
      <stop offset=".91" stop-color="#534366"/>
      <stop offset="1" stop-color="#34495e"/>
    </linearGradient>
  </defs>
  <path class="cls-1" d="m299.33,382.69l-26.95,107.59c-36.98-9.26-69.38-27.58-95.32-51.98-11.49-10.8-21.73-22.8-30.58-35.77-33.56-49.18-46.74-111.97-31.14-174.29,19.73-78.7,80.33-136.42,153.48-156.13,34.4-9.3,71.59-10.18,108.57-.92,18.27,4.59,35.42,11.39,51.23,20.02-43.78,16.27-182.97,72.4-205.67,163.97-.25,1-.48,2.02-.71,3.02-.27,1.19-.5,2.38-.71,3.57-.21,1.02-.38,2.04-.52,3.05-.1.6-.19,1.21-.25,1.81-.06.29-.1.58-.13.88-.1.79-.21,1.56-.27,2.36-.08.71-.15,1.4-.21,2.11,0,.08-.02.19-.02.27-.02.19-.02.35-.04.54-.08.94-.15,1.88-.19,2.82l-.06,1.56c-.04,1.21-.06,2.42-.06,3.63,0,1.13.02,2.23.06,3.36.02,1.08.08,2.15.15,3.23.02.08.02.17.02.25,2.9,44.35,33.94,83.68,79.33,95.05Z"/>
  <path class="cls-3" d="m426.84,306.27l-4.06,16.19,92.57,86.96,19.09-76.19c15.28-60.97,2.97-122.38-29.02-171.08l-83.44,78.36c8.36,20.12,10.56,43,4.86,65.76Z"/>
  <polygon class="cls-4" points="393.76 438.28 322.34 723.34 429.94 750.3 486.33 525.24 393.76 438.28"/>
  <polygon class="cls-2" points="540.96 447.78 540.96 114.46 363.53 281.1 540.96 447.78"/>
  <polygon class="cls-5" points="363.53 281.1 540.96 114.46 540.96 0 241.66 281.09 540.96 562.26 540.96 447.78 363.53 281.1"/>
</svg>